<?xml version="1.0" encoding="UTF-8" standalone="no"?>
<svg
   xmlns:dc="http://purl.org/dc/elements/1.1/"
   xmlns:cc="http://creativecommons.org/ns#"
   xmlns:rdf="http://www.w3.org/1999/02/22-rdf-syntax-ns#"
   xmlns:svg="http://www.w3.org/2000/svg"
   xmlns="http://www.w3.org/2000/svg"
   xmlns:sodipodi="http://sodipodi.sourceforge.net/DTD/sodipodi-0.dtd"
   xmlns:inkscape="http://www.inkscape.org/namespaces/inkscape"
   version="1.1"
   id="Layer_1"
   x="0px"
   y="0px"
   width="100px"
   height="100px"
   viewBox="0 0 100 100"
   enable-background="new 0 0 100 100"
   xml:space="preserve"
   inkscape:version="0.48.2 r9819"
   sodipodi:docname="changeable.svg"><metadata
   id="metadata9"><rdf:RDF><cc:Work
       rdf:about=""><dc:format>image/svg+xml</dc:format><dc:type
         rdf:resource="http://purl.org/dc/dcmitype/StillImage" /><dc:title></dc:title></cc:Work></rdf:RDF></metadata><defs
   id="defs7" /><sodipodi:namedview
   pagecolor="#ffffff"
   bordercolor="#666666"
   borderopacity="1"
   objecttolerance="10"
   gridtolerance="10"
   guidetolerance="10"
   inkscape:pageopacity="0"
   inkscape:pageshadow="2"
   inkscape:window-width="1352"
   inkscape:window-height="647"
   id="namedview5"
   showgrid="false"
   inkscape:zoom="2.36"
   inkscape:cx="134.74576"
   inkscape:cy="33.050847"
   inkscape:window-x="0"
   inkscape:window-y="22"
   inkscape:window-maximized="0"
   inkscape:current-layer="Layer_1" />
<path
   clip-rule="evenodd"
   d="m 69.137,45.936 0,0 c 1.749,2.086 2.806,4.77 2.806,7.705 0,6.625 -5.372,11.998 -11.999,11.998 -2.775,0 -12.801,0 -15.998,0 -8.835,0 -15.998,-7.162 -15.998,-15.998 0,-8.836 7.163,-15.998 15.998,-15.998 1.572,0 3.09,0.232 4.523,0.654 2.195,-2.827 5.618,-4.654 9.475,-4.654 6.627,0 11.999,5.373 11.999,11.998 -0.001,1.515 -0.294,2.961 -0.806,4.295 z m -37.19,3.705 c 0,6.627 5.371,11.998 11.998,11.998 3.616,0 12.979,0 15.998,0 4.418,0 7.999,-3.582 7.999,-7.998 0,-4.418 -3.581,-8 -7.999,-8 -1.6,0 -3.083,0.482 -4.333,1.291 -1.231,-5.316 -5.974,-9.289 -11.665,-9.289 -6.627,0 -11.998,5.371 -11.998,11.998 z M 57.943,33.643 c -2.212,0 -4.215,0.898 -5.662,2.349 2.34,1.436 4.285,3.453 5.629,5.854 0.664,-0.113 1.337,-0.205 2.033,-0.205 2.125,0 4.119,0.559 5.85,1.527 l 0,0 c 0.096,-0.494 0.15,-1.004 0.15,-1.527 0,-4.416 -3.582,-7.998 -8,-7.998 z"
   id="path3"
   inkscape:connector-curvature="0"
   style="fill-rule:evenodd"
   sodipodi:nodetypes="ccssssscsccssssscsssccsccss" />
</svg>